<mxfile host="Electron" modified="2023-12-27T18:19:26.858Z" agent="Mozilla/5.0 (Windows NT 10.0; Win64; x64) AppleWebKit/537.36 (KHTML, like Gecko) draw.io/22.1.2 Chrome/114.0.5735.289 Electron/25.9.4 Safari/537.36" etag="PuLcgfJ04vhUsdvJ0JFu" version="22.1.2" type="device">
  <diagram id="596ousQk8eekbRgIdRVi" name="Page-1">
    <mxGraphModel dx="946" dy="557" grid="1" gridSize="10" guides="1" tooltips="1" connect="1" arrows="1" fold="1" page="1" pageScale="1" pageWidth="850" pageHeight="1100" math="0" shadow="0">
      <root>
        <mxCell id="0" />
        <mxCell id="1" parent="0" />
        <mxCell id="ZAcfMGhO61YSUuA9_GuM-1" value="&lt;br&gt;&lt;br&gt;&lt;br&gt;&lt;br&gt;&lt;br&gt;&lt;br&gt;Actuators" style="rounded=0;whiteSpace=wrap;html=1;shadow=1;fillColor=#CCFFE6;" vertex="1" parent="1">
          <mxGeometry x="570" y="520" width="300" height="220" as="geometry" />
        </mxCell>
        <mxCell id="zFQD9a4e3QE8WD7mpw8z-28" value="&lt;br&gt;&lt;br&gt;&lt;br&gt;&lt;br&gt;&lt;br&gt;&lt;br&gt;MEM Stack" style="rounded=0;whiteSpace=wrap;html=1;shadow=1;fillColor=#CCFFE6;" parent="1" vertex="1">
          <mxGeometry x="250" y="520" width="300" height="220" as="geometry" />
        </mxCell>
        <mxCell id="zFQD9a4e3QE8WD7mpw8z-27" value="&lt;br&gt;&lt;br&gt;&lt;br&gt;&lt;br&gt;&lt;br&gt;&lt;br&gt;DIAG Stack" style="rounded=0;whiteSpace=wrap;html=1;shadow=1;fillColor=#CCFFE6;" parent="1" vertex="1">
          <mxGeometry x="1210" y="280" width="300" height="220" as="geometry" />
        </mxCell>
        <mxCell id="zFQD9a4e3QE8WD7mpw8z-26" value="&lt;br&gt;&lt;br&gt;&lt;br&gt;&lt;br&gt;&lt;br&gt;&lt;br&gt;COMM Stack" style="rounded=0;whiteSpace=wrap;html=1;shadow=1;fillColor=#CCFFE6;" parent="1" vertex="1">
          <mxGeometry x="890" y="280" width="300" height="220" as="geometry" />
        </mxCell>
        <mxCell id="zFQD9a4e3QE8WD7mpw8z-24" value="&lt;br&gt;&lt;br&gt;&lt;br&gt;&lt;br&gt;&lt;br&gt;&lt;br&gt;DB Stack" style="rounded=0;whiteSpace=wrap;html=1;shadow=1;fillColor=#CCFFE6;" parent="1" vertex="1">
          <mxGeometry x="570" y="280" width="300" height="220" as="geometry" />
        </mxCell>
        <mxCell id="zFQD9a4e3QE8WD7mpw8z-23" value="&lt;b&gt;&lt;br&gt;&lt;br&gt;&lt;br&gt;&lt;br&gt;&lt;br&gt;&lt;br&gt;&lt;br&gt;&lt;br&gt;Sensor Stack&lt;/b&gt;" style="rounded=0;whiteSpace=wrap;html=1;shadow=1;fillColor=#CCFFE6;" parent="1" vertex="1">
          <mxGeometry x="250" y="280" width="300" height="220" as="geometry" />
        </mxCell>
        <mxCell id="zFQD9a4e3QE8WD7mpw8z-1" value="&lt;font style=&quot;font-size: 24px;&quot;&gt;Over all arch&lt;/font&gt;" style="text;html=1;align=center;verticalAlign=middle;resizable=0;points=[];autosize=1;strokeColor=none;fillColor=none;" parent="1" vertex="1">
          <mxGeometry x="20" y="13" width="160" height="40" as="geometry" />
        </mxCell>
        <mxCell id="zFQD9a4e3QE8WD7mpw8z-2" value="HVAC-system_App" style="rounded=0;whiteSpace=wrap;html=1;fillColor=#C9EBFF;" parent="1" vertex="1">
          <mxGeometry x="240" y="80" width="130" height="100" as="geometry" />
        </mxCell>
        <mxCell id="zFQD9a4e3QE8WD7mpw8z-3" value="Air_Quality_App" style="rounded=0;whiteSpace=wrap;html=1;fillColor=#C9EBFF;" parent="1" vertex="1">
          <mxGeometry x="400" y="80" width="110" height="100" as="geometry" />
        </mxCell>
        <mxCell id="zFQD9a4e3QE8WD7mpw8z-4" value="App_Com_Layer" style="rounded=0;whiteSpace=wrap;html=1;fillColor=#C9EBFF;" parent="1" vertex="1">
          <mxGeometry x="540" y="80" width="110" height="100" as="geometry" />
        </mxCell>
        <mxCell id="zFQD9a4e3QE8WD7mpw8z-5" value="Task_Stack _H" style="rounded=0;whiteSpace=wrap;html=1;fillColor=#C9EBFF;" parent="1" vertex="1">
          <mxGeometry x="20" y="80" width="160" height="720" as="geometry" />
        </mxCell>
        <mxCell id="zFQD9a4e3QE8WD7mpw8z-6" value="Memory_Mng_H" style="rounded=0;whiteSpace=wrap;html=1;fillColor=#C9EBFF;" parent="1" vertex="1">
          <mxGeometry x="270" y="540" width="120" height="60" as="geometry" />
        </mxCell>
        <mxCell id="zFQD9a4e3QE8WD7mpw8z-7" value="User_H" style="rounded=0;whiteSpace=wrap;html=1;fillColor=#C9EBFF;" parent="1" vertex="1">
          <mxGeometry x="900" y="360" width="110" height="60" as="geometry" />
        </mxCell>
        <mxCell id="zFQD9a4e3QE8WD7mpw8z-8" value="Diag_H" style="rounded=0;whiteSpace=wrap;html=1;fillColor=#C9EBFF;" parent="1" vertex="1">
          <mxGeometry x="1250" y="290" width="90" height="60" as="geometry" />
        </mxCell>
        <mxCell id="zFQD9a4e3QE8WD7mpw8z-9" value="ALiya-co_Mng_App" style="rounded=0;whiteSpace=wrap;html=1;fillColor=#C9EBFF;" parent="1" vertex="1">
          <mxGeometry x="930" y="80" width="120" height="100" as="geometry" />
        </mxCell>
        <mxCell id="zFQD9a4e3QE8WD7mpw8z-10" value="Temp_sensor_H" style="rounded=0;whiteSpace=wrap;html=1;fillColor=#C9EBFF;" parent="1" vertex="1">
          <mxGeometry x="390" y="370" width="120" height="60" as="geometry" />
        </mxCell>
        <mxCell id="zFQD9a4e3QE8WD7mpw8z-11" value="Air_qualifty_sensor_H" style="rounded=0;whiteSpace=wrap;html=1;fillColor=#C9EBFF;" parent="1" vertex="1">
          <mxGeometry x="260" y="290" width="130" height="60" as="geometry" />
        </mxCell>
        <mxCell id="zFQD9a4e3QE8WD7mpw8z-12" value="Ammonia_sensor_H" style="rounded=0;whiteSpace=wrap;html=1;fillColor=#C9EBFF;" parent="1" vertex="1">
          <mxGeometry x="410" y="290" width="120" height="60" as="geometry" />
        </mxCell>
        <mxCell id="zFQD9a4e3QE8WD7mpw8z-13" value="Feeding_actuator_H" style="rounded=0;whiteSpace=wrap;html=1;fillColor=#C9EBFF;" parent="1" vertex="1">
          <mxGeometry x="260" y="370" width="120" height="60" as="geometry" />
        </mxCell>
        <mxCell id="zFQD9a4e3QE8WD7mpw8z-14" value="Heating_sys" style="rounded=0;whiteSpace=wrap;html=1;fillColor=#C9EBFF;" parent="1" vertex="1">
          <mxGeometry x="595" y="540" width="90" height="60" as="geometry" />
        </mxCell>
        <mxCell id="zFQD9a4e3QE8WD7mpw8z-15" value="Server_Comm_H" style="rounded=0;whiteSpace=wrap;html=1;fillColor=#C9EBFF;" parent="1" vertex="1">
          <mxGeometry x="900" y="290" width="110" height="60" as="geometry" />
        </mxCell>
        <mxCell id="zFQD9a4e3QE8WD7mpw8z-16" value="WIFI_H" style="rounded=0;whiteSpace=wrap;html=1;fillColor=#C9EBFF;" parent="1" vertex="1">
          <mxGeometry x="1040" y="290" width="100" height="60" as="geometry" />
        </mxCell>
        <mxCell id="zFQD9a4e3QE8WD7mpw8z-17" value="App_Facility" style="rounded=0;whiteSpace=wrap;html=1;fillColor=#C9EBFF;" parent="1" vertex="1">
          <mxGeometry x="1220" y="80" width="160" height="100" as="geometry" />
        </mxCell>
        <mxCell id="zFQD9a4e3QE8WD7mpw8z-18" value="Data_Equilizer_App" style="rounded=0;whiteSpace=wrap;html=1;fillColor=#C9EBFF;" parent="1" vertex="1">
          <mxGeometry x="680" y="80" width="120" height="100" as="geometry" />
        </mxCell>
        <mxCell id="zFQD9a4e3QE8WD7mpw8z-19" value="User_App" style="rounded=0;whiteSpace=wrap;html=1;fillColor=#C9EBFF;" parent="1" vertex="1">
          <mxGeometry x="820" y="80" width="80" height="100" as="geometry" />
        </mxCell>
        <mxCell id="zFQD9a4e3QE8WD7mpw8z-20" value="Error_H" style="rounded=0;whiteSpace=wrap;html=1;fillColor=#C9EBFF;" parent="1" vertex="1">
          <mxGeometry x="1370" y="290" width="90" height="60" as="geometry" />
        </mxCell>
        <mxCell id="zFQD9a4e3QE8WD7mpw8z-21" value="Machine_Constants" style="rounded=0;whiteSpace=wrap;html=1;fillColor=#C9EBFF;" parent="1" vertex="1">
          <mxGeometry x="1070" y="80" width="120" height="100" as="geometry" />
        </mxCell>
        <mxCell id="zFQD9a4e3QE8WD7mpw8z-22" value="Application Wrapper" style="rounded=0;whiteSpace=wrap;html=1;fillColor=#C9EBFF;" parent="1" vertex="1">
          <mxGeometry x="240" y="200" width="1450" height="50" as="geometry" />
        </mxCell>
        <mxCell id="zFQD9a4e3QE8WD7mpw8z-25" value="Server_DB_H" style="rounded=0;whiteSpace=wrap;html=1;fillColor=#C9EBFF;" parent="1" vertex="1">
          <mxGeometry x="740" y="290" width="90" height="60" as="geometry" />
        </mxCell>
        <mxCell id="zFQD9a4e3QE8WD7mpw8z-29" value="&lt;font style=&quot;font-size: 18px;&quot; color=&quot;#ffffff&quot;&gt;MCAL layer&lt;/font&gt;" style="rounded=0;whiteSpace=wrap;html=1;shadow=1;fillColor=#000000;" parent="1" vertex="1">
          <mxGeometry x="250" y="760" width="1350" height="40" as="geometry" />
        </mxCell>
        <mxCell id="zFQD9a4e3QE8WD7mpw8z-30" value="GUI_App" style="rounded=0;whiteSpace=wrap;html=1;fillColor=#C9EBFF;" parent="1" vertex="1">
          <mxGeometry x="1400" y="80" width="110" height="100" as="geometry" />
        </mxCell>
        <mxCell id="zFQD9a4e3QE8WD7mpw8z-31" value="DB_App" style="rounded=0;whiteSpace=wrap;html=1;fillColor=#C9EBFF;" parent="1" vertex="1">
          <mxGeometry x="1530" y="80" width="110" height="100" as="geometry" />
        </mxCell>
        <mxCell id="ZAcfMGhO61YSUuA9_GuM-2" value="Local_DB_H" style="rounded=0;whiteSpace=wrap;html=1;fillColor=#C9EBFF;" vertex="1" parent="1">
          <mxGeometry x="595" y="290" width="90" height="60" as="geometry" />
        </mxCell>
        <mxCell id="ZAcfMGhO61YSUuA9_GuM-3" value="cooling_sys" style="rounded=0;whiteSpace=wrap;html=1;fillColor=#C9EBFF;" vertex="1" parent="1">
          <mxGeometry x="740" y="540" width="90" height="60" as="geometry" />
        </mxCell>
        <mxCell id="ZAcfMGhO61YSUuA9_GuM-4" value="Allarm_sys" style="rounded=0;whiteSpace=wrap;html=1;fillColor=#C9EBFF;" vertex="1" parent="1">
          <mxGeometry x="595" y="610" width="90" height="60" as="geometry" />
        </mxCell>
      </root>
    </mxGraphModel>
  </diagram>
</mxfile>
